<?xml version="1.0" encoding="UTF-8"?>
<svg id="Capa_2" data-name="Capa 2" xmlns="http://www.w3.org/2000/svg" xmlns:xlink="http://www.w3.org/1999/xlink" viewBox="0 0 1314 1429.2">
  <defs>
    <style>
      .cls-1 {
        fill: #b32929;
      }

      .cls-1, .cls-2 {
        fill-rule: evenodd;
      }

      .cls-2 {
        fill: #fff;
      }

      .cls-3 {
        clip-path: url(#clippath);
      }

      .cls-4 {
        fill: none;
      }
    </style>
    <clipPath id="clippath">
      <path class="cls-4" d="m244.8,856.8s255.6-316.8,489.6-273.6S1220.4,0,1220.4,0l93.6,1195.2s-50.4,234-79.2,234-817.2-36-817.2-36L0,1256.4l86.4-439.2h90l68.4,39.6h0Z"/>
    </clipPath>
  </defs>
  <g id="Capa_2-2" data-name="Capa 2">
    <g id="Capa_3" data-name="Capa 3">
      <g id="Capa_2-2" data-name="Capa 2-2">
        <g id="Capa_1-2" data-name="Capa 1-2">
          <path class="cls-1" d="m995.53,514.2v321c0,66.89,3.63,138.68-12,190-31.93,104.81-99.99,182.45-195,224-22.88,10-48.58,17.15-75,23-42.29,9.36-101.16,5.61-139-4-137.54-34.92-227.41-122.79-262-260-10.37-41.12-8-93.44-8-144v-217h0l143-1c-68.09-12.62-124.3-91.41-140-159-10.35-44.56-4-106.03-4-157V27.2c54.99,33,110.01,66,165,99v260c0,53.67-3.99,98.48,41,107,28.09,5.32,48.44-14.21,55-31,9.34-23.92,3-82.09,3-113-.01-89.91-2.29-155.38,32-210,45.15-71.93,156.68-130.6,268-82,81.52,35.59,128.42,105.17,128,224v233Zm-406,133v-1c85.24-23.03,143-91.91,143-194,4.14-130.18-17.6-234.4,41.09-238.73,62.71-4.63,56.91,83.32,56.91,97.73v336h-241Zm241,165c.52,125.46,4.48,206.23-67,261-17.82,13.65-40.28,25.82-64,33-116.75,35.36-208.37-54.18-227-140-9.05-41.7-2.42-107.57-2-154h360Z"/>
        </g>
      </g>
      <g id="Capa_5" data-name="Capa 5">
        <g class="cls-3">
          <g id="Capa_1-2-2" data-name="Capa 1-2-2">
            <path class="cls-2" d="m995.53,514v321c0,66.89,3.63,138.68-12,190-31.93,104.81-99.99,182.45-195,224-22.88,10-48.58,17.15-75,23-42.29,9.36-101.16,5.61-139-4-137.54-34.92-227.41-122.79-262-260-10.37-41.12-8-93.44-8-144v-217h0l143-1c-68.09-12.62-124.3-91.41-140-159-10.35-44.56-4-106.03-4-157V27c54.99,33,110.01,66,165,99v260c0,53.67-3.99,98.48,41,107,28.09,5.32,48.44-14.21,55-31,9.34-23.92,3-82.09,3-113-.01-89.91-2.29-155.38,32-210,45.15-71.93,156.68-130.6,268-82,81.52,35.59,128.42,105.17,128,224v233Zm-406,133v-1c85.24-23.03,143-91.91,143-194,4.14-130.18-17.6-234.4,41.09-238.73,62.71-4.63,56.91,83.32,56.91,97.73v336h-241Zm241,165c.52,125.46,4.48,206.23-67,261-17.82,13.65-40.28,25.82-64,33-116.75,35.36-208.37-54.18-227-140-9.05-41.7-2.42-107.57-2-154h360Z"/>
          </g>
        </g>
      </g>
    </g>
  </g>
</svg>