<?xml version="1.0" encoding="UTF-8"?>
<svg id="uuid-ece894e4-2b4c-4967-9b2f-b514ab9e5299" data-name="Capa 2" xmlns="http://www.w3.org/2000/svg" viewBox="0 0 282.4 306.1">
  <defs>
    <style>
      .uuid-b1c0676a-6384-4227-9bd0-822a45cb497d {
        fill: #b32a29;
        fill-rule: evenodd;
      }
    </style>
  </defs>
  <g id="uuid-44af9c60-6b3e-49f7-947f-473fc48f44f9" data-name="Capa 1">
    <path class="uuid-b1c0676a-6384-4227-9bd0-822a45cb497d" d="m74.2,190.2c-.4-38.6,20.7-61.1,51.4-68.6,8.2-2,19-1.4,29-1.4h45.1c5.6,0,20.7-.6,20.9-1.2.2-.5,0-46.8-.2-47,.7-.2-13.9-.5-19.9-.5H35C23.4,47.6,11.7,23.8,0,0h216.2c8.9,0,18.5-.6,25.4,1.4,15.7,4.5,26.6,14.9,34.1,27.6,7.9,13.4,6.2,36.6,6.2,58.1,0,33.2,3.8,61.9-11.3,80.9-7.5,9.5-20,18.5-33.6,21.6-6,.2-12,.3-18,.5H74.2Z"/>
    <path class="uuid-b1c0676a-6384-4227-9bd0-822a45cb497d" d="m75.8,240.1h64.3v66c-11.8,0-23.5-.2-35.3-.2-22.1-4.2-29-18.6-29-45.4v-20.4Z"/>
  </g>
</svg>